<?xml version="1.0" encoding="UTF-8"?>
<svg id="Layer_1" data-name="Layer 1" xmlns="http://www.w3.org/2000/svg" version="1.1" viewBox="0 0 283.46 200.43">
  <defs>
    <style>
      .cls-1 {
        fill: #eacea2;
      }

      .cls-1, .cls-2, .cls-3, .cls-4 {
        stroke-width: 0px;
      }

      .cls-2 {
        fill: #f9f5f2;
      }

      .cls-3 {
        fill-rule: evenodd;
      }

      .cls-3, .cls-4 {
        fill: #5b4f49;
      }

      .cls-5 {
        fill: #35302d;
        stroke: #edd8a2;
        stroke-miterlimit: 10;
        stroke-width: .75px;
      }
    </style>
  </defs>
  <g>
    <path class="cls-2" d="M92.5,129.67c1.75,1.27,3.48,2.55,5.17,3.86.23.16.41.35.54.59.13.24.22.48.26.74.09.55-.01,1.05-.31,1.52-.3.46-.7.74-1.2.82-.23.04-.47.03-.72-.02-.25-.05-.48-.17-.69-.35-1.7-1.29-3.42-2.56-5.17-3.81-1.13,1.83-2.23,3.66-3.3,5.5-.13.25-.29.44-.5.59-.21.14-.43.24-.66.29-.5.11-.97.01-1.42-.3-.45-.31-.75-.74-.87-1.28-.93-3.99-1.86-7.99-2.79-11.98-.13-.54-.04-1.05.25-1.54.29-.48.71-.79,1.24-.9.53-.12,1.03-.02,1.51.29.47.31.77.74.89,1.28.52,2.4,1.04,4.8,1.56,7.2,2.08-3.45,4.26-6.88,6.55-10.28.32-.47.74-.75,1.28-.85.53-.09,1.03.03,1.49.36.46.33.73.78.82,1.32.09.55-.02,1.05-.34,1.52-1.22,1.8-2.42,3.61-3.58,5.43Z"/>
    <path class="cls-2" d="M98.79,131.64c-.12-.7-.1-1.39.05-2.04.15-.66.41-1.26.77-1.79.37-.54.82-.98,1.37-1.34.55-.36,1.16-.58,1.83-.68.67-.1,1.32-.05,1.95.13.63.19,1.19.48,1.7.89.5.41.92.91,1.25,1.5.33.59.54,1.24.63,1.95.06.47.06.92,0,1.35-.06.43-.16.86-.31,1.27.25.08.46.22.63.44.17.22.27.47.31.77.05.4-.04.76-.26,1.07-.22.31-.51.49-.88.54-.27.04-.52-.01-.75-.14-.23-.13-.42-.31-.57-.55-.64.55-1.37.88-2.21,1-.65.09-1.27.05-1.88-.13-.61-.18-1.16-.47-1.66-.87-.5-.4-.93-.89-1.27-1.46-.35-.58-.58-1.22-.7-1.92ZM101.17,131.26c.06.36.17.68.34.97.17.29.38.53.63.73.25.2.53.35.83.44.3.09.62.11.95.06.33-.05.63-.16.89-.33.26-.17.49-.39.67-.65.18-.26.32-.56.4-.88.08-.32.1-.67.05-1.03-.05-.36-.16-.69-.32-.98-.17-.29-.38-.54-.63-.74-.25-.2-.53-.35-.84-.44-.31-.09-.63-.11-.97-.07-.34.05-.64.16-.91.34-.27.18-.49.4-.68.66-.18.27-.31.56-.39.89-.08.33-.09.67-.03,1.03Z"/>
    <path class="cls-2" d="M118.99,129.16c.05.59,0,1.16-.13,1.71-.14.55-.34,1.06-.62,1.52-.28.46-.62.87-1.02,1.23-.4.35-.85.63-1.33.82.09.92.18,1.84.26,2.76.03.35-.05.66-.26.94-.2.28-.46.43-.77.46-.31.03-.6-.07-.85-.3-.26-.23-.4-.52-.44-.87-.1-.91-.19-1.82-.29-2.73-.52-.09-1.01-.27-1.48-.54-.47-.27-.89-.6-1.26-1-.37-.4-.68-.85-.92-1.37-.24-.51-.4-1.07-.48-1.67-.03-.24-.04-.48-.04-.72,0-.24.02-.47.06-.71.1-.34.23-.64.39-.9.14-.22.32-.41.54-.58.22-.17.48-.21.8-.14.3.07.52.19.65.33.13.15.22.29.26.44.04.17.04.36-.02.55-.22.46-.3.94-.24,1.45.05.48.21.9.48,1.27.27.36.59.64.97.83-.22-2.03-.43-4.06-.65-6.09-.04-.35.05-.66.27-.94.21-.28.49-.44.82-.47,0,0,.01,0,.02,0,.66-.07,1.3,0,1.92.22.62.21,1.17.54,1.64.97.48.43.87.95,1.17,1.55.3.6.48,1.26.54,1.97ZM115.62,131.69c.34-.26.59-.6.77-1.01.17-.41.24-.85.2-1.32-.04-.48-.19-.91-.44-1.28-.25-.37-.57-.65-.96-.84.14,1.48.29,2.96.43,4.44Z"/>
    <path class="cls-2" d="M127.25,130.09c.32-.02.61.1.86.34.25.24.38.54.39.89.02.35-.09.66-.31.92-.45.53-.95.94-1.52,1.22-.56.28-1.15.43-1.75.47-.65.04-1.27-.06-1.86-.29-.59-.23-1.12-.57-1.58-1-.47-.44-.85-.96-1.14-1.57-.3-.61-.47-1.26-.53-1.98-.06-.71.02-1.39.22-2.03.2-.64.51-1.22.92-1.72.41-.5.9-.91,1.48-1.22.58-.31,1.2-.48,1.88-.52.63-.04,1.25.05,1.86.27.61.22,1.17.57,1.68,1.06.25.24.39.54.4.89.02.35-.09.66-.32.92-.23.27-.51.41-.83.42-.34.02-.63-.1-.87-.34-.25-.26-.53-.43-.84-.53-.3-.1-.61-.14-.93-.12-.44.03-.84.17-1.2.43-.36.26-.63.59-.82.99.72-.05,1.43-.09,2.15-.13.33-.02.62.09.87.34.25.24.39.54.41.89.02.35-.08.66-.31.93-.22.27-.5.41-.82.43-.71.04-1.42.09-2.13.13.24.38.55.67.93.88.38.21.79.31,1.22.28.31-.02.6-.1.88-.23.28-.14.54-.34.77-.61.22-.27.5-.41.82-.43Z"/>
    <path class="cls-2" d="M135.85,128.37c.94.98,1.86,1.96,2.77,2.95.12.12.21.26.27.42.06.16.08.32.08.48,0,.35-.12.65-.35.91-.23.26-.51.39-.83.39-.15,0-.29-.03-.44-.09-.15-.06-.28-.16-.39-.29-.91-.98-1.84-1.96-2.77-2.93-.89,1.01-1.78,2.02-2.65,3.04-.11.14-.23.24-.38.31-.15.07-.29.1-.44.11-.32.01-.6-.11-.84-.35-.24-.25-.37-.54-.39-.9-.1-2.58-.21-5.17-.31-7.75-.01-.35.09-.66.33-.92.23-.26.52-.4.85-.42.33-.01.62.11.88.36.25.25.38.55.39.9.05,1.55.1,3.1.14,4.64,1.66-1.9,3.36-3.79,5.1-5.66.24-.26.53-.39.86-.39.33,0,.62.13.87.38.24.26.37.56.37.91,0,.35-.12.65-.36.91-.93.99-1.85,1.99-2.76,2.99Z"/>
    <path class="cls-2" d="M139.72,128.35c0-.71.13-1.38.38-2.01.25-.63.61-1.17,1.06-1.64.45-.47.97-.83,1.57-1.09.6-.26,1.24-.38,1.92-.37.68.01,1.31.17,1.9.45.59.29,1.1.67,1.53,1.16.43.49.76,1.05.99,1.68.23.64.33,1.31.3,2.02-.03.71-.18,1.38-.45,1.99-.27.62-.64,1.15-1.08,1.61-.45.46-.96.81-1.54,1.06-.58.25-1.19.37-1.85.36-.65-.01-1.26-.16-1.83-.44-.57-.28-1.07-.65-1.5-1.13-.43-.47-.77-1.03-1.01-1.65-.25-.63-.37-1.3-.37-2.01ZM142.13,128.36c0,.36.05.7.18,1.01.12.31.29.59.5.83.21.24.46.43.75.57.28.14.59.21.93.22.34,0,.65-.05.94-.18.29-.13.55-.31.77-.54.22-.23.4-.5.54-.8.13-.31.21-.64.22-1,.01-.36-.04-.7-.16-1.02-.12-.31-.28-.59-.5-.83-.21-.24-.47-.43-.75-.58-.29-.14-.6-.22-.95-.22-.34,0-.66.05-.95.18-.29.13-.55.31-.78.54-.22.23-.4.5-.53.81-.13.31-.2.64-.2,1.01Z"/>
    <path class="cls-2" d="M152.96,126.1c-.12,2.17-.23,4.33-.35,6.5-.02.35-.15.65-.4.89-.25.24-.53.36-.85.34-.32-.02-.59-.16-.81-.42-.22-.27-.33-.57-.31-.92.11-2.5.22-5.01.33-7.51.02-.35.15-.65.4-.89.25-.24.55-.36.88-.34,2.46.12,4.92.28,7.38.48.33.03.61.18.83.45.22.28.32.59.29.94-.21,2.5-.42,4.99-.62,7.49-.03.35-.17.64-.43.88-.25.24-.54.34-.86.32-.32-.03-.59-.17-.8-.45-.21-.27-.31-.58-.28-.93.16-2.16.32-4.33.48-6.49-1.63-.12-3.26-.23-4.88-.32Z"/>
    <path class="cls-2" d="M163.67,124.36c.82.08,1.63.16,2.45.25.61.07,1.23.13,1.84.2.33.04.6.2.82.48.21.28.3.6.26.95-.04.35-.2.63-.47.86-.27.23-.57.32-.9.28-.61-.07-1.21-.14-1.82-.2-.14,1.29-.27,2.57-.41,3.86-.04.35.05.66.26.94.21.28.47.44.79.47.2.02.4.04.59.07.32.04.59.2.79.48.2.28.29.6.24.94-.04.35-.19.64-.46.86-.26.23-.55.32-.87.29-.2-.02-.39-.04-.59-.07-.49-.05-.94-.2-1.35-.45-.41-.25-.75-.56-1.04-.94-.29-.38-.5-.81-.64-1.3-.14-.49-.18-1-.13-1.54.12-1.29.25-2.57.37-3.86-.3-.03-.61-.06-.91-.09-.33-.03-.6-.18-.82-.46-.22-.28-.31-.59-.28-.94.03-.35.18-.64.44-.87.26-.23.56-.33.9-.3.31.03.61.06.92.09Z"/>
    <path class="cls-2" d="M176.24,132.59c.32.05.58.22.78.51.2.29.27.61.21.95-.05.35-.22.63-.49.84-.54.43-1.12.73-1.73.89-.61.16-1.21.2-1.81.12-.65-.09-1.24-.31-1.77-.65-.53-.34-.99-.77-1.36-1.3-.37-.52-.64-1.11-.82-1.76-.17-.65-.22-1.33-.13-2.04.09-.71.29-1.36.62-1.95.33-.59.74-1.09,1.24-1.5.5-.41,1.07-.71,1.69-.9.63-.19,1.28-.24,1.95-.14.62.09,1.22.3,1.78.63.56.34,1.04.79,1.45,1.37.2.29.27.61.22.95-.05.35-.22.63-.5.84-.28.22-.58.3-.9.25-.34-.05-.6-.22-.79-.51-.2-.3-.44-.53-.72-.69-.28-.16-.58-.26-.89-.3-.44-.06-.86,0-1.27.18-.4.18-.74.46-1,.81.72.09,1.43.19,2.14.29.33.05.59.21.79.5.2.29.28.61.23.95-.05.35-.21.63-.48.85-.27.22-.57.31-.89.26-.71-.1-1.41-.2-2.12-.29.16.42.41.76.74,1.05.33.28.71.45,1.15.52.31.04.61.03.91-.05.3-.08.59-.23.88-.44.27-.22.57-.3.89-.25Z"/>
    <path class="cls-2" d="M181.12,125.71c-.21.16-.44.21-.7.17-.25-.04-.46-.17-.6-.38-.15-.22-.2-.46-.16-.72.04-.27.17-.48.38-.64.48-.36.96-.72,1.44-1.07.21-.16.45-.21.7-.17.26.04.46.17.61.39.15.22.2.46.15.72-.05.27-.17.48-.38.63-.48.35-.96.71-1.44,1.07ZM180.35,135.71c-.06.35-.23.62-.5.84-.27.21-.57.29-.89.24-.32-.05-.57-.22-.76-.51-.19-.29-.26-.61-.2-.95.41-2.55.81-5.11,1.22-7.66.05-.35.22-.63.5-.84.28-.21.59-.29.92-.24.33.05.59.23.79.52.2.29.27.61.21.96-.43,2.55-.86,5.1-1.3,7.65Z"/>
    <path class="cls-2" d="M182.04,132.06c.12-.7.36-1.34.72-1.91.36-.57.8-1.05,1.32-1.44.52-.38,1.11-.65,1.74-.81.64-.15,1.29-.17,1.96-.04.67.13,1.27.39,1.81.77.53.38.97.85,1.32,1.41.34.55.57,1.16.69,1.83.12.67.1,1.35-.05,2.05-.15.7-.41,1.33-.79,1.89-.38.56-.82,1.03-1.35,1.4-.52.37-1.09.63-1.71.78-.62.15-1.25.16-1.89.04-.64-.13-1.22-.37-1.74-.74-.52-.37-.95-.83-1.29-1.37-.35-.54-.59-1.14-.73-1.8-.14-.66-.15-1.34-.03-2.05ZM184.43,132.49c-.07.36-.06.7,0,1.03.07.33.19.63.36.9.17.27.39.5.64.69.26.19.55.31.88.38.33.06.65.06.96-.02.31-.08.59-.21.85-.4.26-.19.48-.42.67-.7.18-.28.31-.6.39-.95.07-.36.08-.7.02-1.03-.06-.33-.18-.63-.35-.91-.17-.28-.39-.51-.65-.7-.26-.19-.56-.32-.9-.38-.34-.07-.66-.06-.98.02-.31.08-.6.21-.86.4-.26.19-.48.43-.66.71-.18.28-.3.6-.37.96Z"/>
  </g>
  <g>
    <path class="cls-1" d="M98.67,74.38c.43,5.8.8,11.61,1.3,17.4.44,5.01,4.06,8.42,9.16,8.9,2.8.26,5.52.01,8.08-1.19,3.28-1.54,5.01-4.15,5.42-7.64.1-.82.07-1.66.05-2.49-.36-11.26-.74-22.52-1.12-33.78-.08-2.46,1.39-3.88,4.14-3.96,1.14-.03,2.28-.07,3.41-.07,2.45-.02,4.04,1.38,4.08,3.59.06,3.17.1,6.34.14,9.51.12,8.27.24,16.54.33,24.81.03,2.54-.29,5.04-1.19,7.45-1.57,4.22-4.31,7.46-8.13,9.82-2.99,1.85-6.24,2.88-9.72,3.33-3.91.51-7.74.35-11.5-.86-6.82-2.2-11.47-6.53-13.45-13.49-.36-1.25-.57-2.56-.69-3.86-1.08-11.35-2.13-22.7-3.19-34.05-.23-2.42,1.16-3.95,3.84-4.18,1.16-.1,2.31-.21,3.47-.28,2.45-.16,4.1,1.15,4.27,3.35.44,5.9.88,11.79,1.31,17.69,0,0,0,0,0,0Z"/>
    <path class="cls-4" d="M150.78,80.43c-.05,3.03-.11,6.07-.15,9.1-.03,2.26.43,4.42,1.64,6.37,1.66,2.68,4.15,4.08,7.25,4.51,4.41.62,8.35-.46,11.92-3.07,1.9-1.39,3.91-1.23,5.56.44.54.54,1.08,1.09,1.59,1.66,1.32,1.47,1.22,3.56-.27,4.82-4.01,3.39-8.54,5.39-13.79,5.78-3.94.3-7.8,0-11.5-1.46-7.27-2.88-11.64-8.11-13.01-15.79-.25-1.42-.32-2.88-.33-4.32-.05-5.51-.05-11.01-.06-16.52,0-2.48.25-4.94,1.13-7.3,2.53-6.82,7.74-11.25,15.52-12.81,8.36-1.67,16.16-.03,22.73,5.11.55.43,1.06.91,1.53,1.42,1.3,1.41,1.23,3.13-.23,4.35-1.02.86-2.09,1.66-3.2,2.41-1.37.93-2.87.86-4.25-.09-.25-.17-.5-.36-.72-.57-2.42-2.21-5.39-3.37-8.77-3.63-2.59-.2-5.07.12-7.29,1.39-2.97,1.7-4.5,4.26-4.94,7.37-.23,1.56-.19,3.16-.23,4.74-.06,2.03-.07,4.06-.11,6.09Z"/>
    <path class="cls-1" d="M81.52,78.24c.68,6.57,1.39,13.14,2.03,19.72.29,2.97-.32,5.81-1.85,8.41-2.01,3.4-4.95,5.69-8.63,7.05-4.46,1.64-8.96,1.98-13.51.42-4.53-1.55-7.69-4.56-9.17-9.13-.53-1.64-.8-3.38-1.07-5.09-.26-1.61.71-3.13,2.36-3.55,1.63-.41,3.32-.71,5-.78,1.95-.08,3.15,1.12,3.48,2.99.23,1.27.37,2.57.81,3.77.78,2.12,2.77,3.22,5.07,3.14,1.7-.06,3.28-.43,4.64-1.49,1.63-1.27,2.25-2.98,2.01-4.95-1.08-8.94-2.2-17.87-3.3-26.81-.51-4.08-1.02-8.17-1.51-12.25-.18-1.46.33-2.68,1.79-3.49.31-.17.66-.33,1.01-.38,1.7-.23,3.4-.56,5.1-.57,2.19-.01,3.46,1.22,3.67,3.19.69,6.59,1.38,13.18,2.06,19.77Z"/>
    <path class="cls-3" d="M192.34,110.76c-.92-.44-1.77-.97-2.57-1.56-2.06-1.49-3.71-3.3-5.09-5.32-1.45-2.11-2.5-4.36-3.33-6.71-.9-2.53-1.47-5.11-1.77-7.74-.29-2.59-.28-5.18-.05-7.77.16-1.8.44-3.58.86-5.35,1.06-4.45,2.89-8.63,5.85-12.42,1.66-2.12,3.64-4.03,5.94-5.7,1.67-1.21,3.47-2.27,5.45-3.11.71-.3,1.45-.55,2.22-.74.85-.21,1.72-.33,2.64-.21.84.11,1.55.41,2.13.94.51.46.83,1,1.08,1.58.21.51.35,1.02.47,1.54.32,1.37.59,2.75.71,4.14.21,2.28.11,4.53-.36,6.75-.5,2.33-1.36,4.55-2.65,6.63-1.26,2.04-2.81,3.91-4.64,5.6-.38.35-.77.71-1.12,1.08-1.57,1.63-2.62,3.51-3.24,5.58-.74,2.47-.62,4.95-.03,7.45.64,2.71,1.89,5.2,3.6,7.52,1.03,1.4,2.16,2.72,3.37,3.99,1.17,1.23,2.35,2.44,3.52,3.67.13.13.25.28.37.41.08.14.15.28.24.42.1.17.18.35.23.54.13.55-.07.96-.6,1.23-.22.11-.46.17-.71.21-.74.13-1.49.12-2.24.06-.94-.07-1.88-.18-2.82-.29-.38-.04-.77-.09-1.14-.18-2.01-.47-3.94-1.16-5.78-2.06-.17-.08-.33-.19-.53-.2Z"/>
    <path class="cls-3" d="M208.91,111.41c-.36-.27-.68-.59-.96-.93-2.51-2.98-4.78-6.09-6.51-9.51-1.02-2.01-1.73-4.1-2.08-6.28-.27-1.66-.22-3.3.12-4.92.46-2.15,1.55-4.04,3.19-5.69.33-.33.67-.64,1-.96,2.38-2.25,4.32-4.75,5.66-7.6,1.06-2.27,1.72-4.63,1.89-7.1.22-3.16-.22-6.28-1.35-9.36-.18-.49-.4-.98-.61-1.46-.17-.39-.32-.78-.4-1.18-.07-.33-.07-.67.03-.99.12-.38.41-.58.89-.63.53-.06,1.02.1,1.5.26,1.2.38,2.28.96,3.29,1.63,1.45.97,2.73,2.07,3.93,3.25,2.78,2.74,4.76,5.83,6.13,9.18,1.2,2.93,1.9,5.94,2.24,8.99.19,1.74.25,3.48.2,5.22-.06,1.9-.21,3.78-.47,5.66-.25,1.75-.63,3.48-1.1,5.19-.63,2.34-1.42,4.63-2.4,6.86-.96,2.19-2.09,4.29-3.56,6.23-1.01,1.34-2.15,2.57-3.54,3.6-.73.54-1.5,1.02-2.35,1.39-.19.08-.37.18-.59.21-.15.02-.3.04-.45.07-.32.06-.65.07-.98.04-.67-.06-1.29-.27-1.84-.62-.29-.18-.57-.37-.86-.55Z"/>
  </g>
  <g>
    <path class="cls-5" d="M199.71,135.84c-.04-5.2-.07-10.37-.11-15.59-.45,0-.88,0-1.31,0-1,0-1.59-.49-1.6-1.35-.01-.99.53-1.53,1.58-1.55,1.08-.02,2.16-.03,3.24-.02.37,0,.53-.06.64-.51.55-2.37,1.8-4.28,3.95-5.49.74-.41,1.56-.67,2.36-.96.28-.1.41-.2.41-.53-.03-1.83-.03-3.66-.06-5.49,0-.16-.14-.4-.27-.45-.72-.3-1.05-.81-.98-1.62.04-.51.64-1.17,1.25-1.2,1.02-.04,2.04-.01,3.06.07.62.05,1.06.59,1.12,1.17.06.56-.27,1.34-.77,1.47-.53.13-.48.44-.47.8,0,.22,0,.45,0,.73.82,0,1.59,0,2.37-.03.16,0,.33-.11.47-.2,1.49-1.04,2.98-2.08,4.47-3.12.95-.66,1.88-1.33,2.85-1.95,1.04-.66,2.2-.91,3.43-.86.42.02.83,0,1.35,0-.17-.68-.37-1.3-.49-1.94-.3-1.51-.71-3.02-.81-4.55-.15-2.24,2.04-3.69,4.09-2.78.95.42,1.56,1.22,1.62,2.34.11,1.98-.5,3.83-.92,5.72-.08.38-.17.76-.25,1.14,1.22.17,1.74.95,1.35,2.02-.2.54-.67.84-1.34.85-1.43.01-2.86.07-4.28.02-1.22-.05-2.19.43-3.14,1.11-2.13,1.52-4.28,3.01-6.44,4.48-.57.39-1.22.6-1.94.57-.76-.03-1.53,0-2.36,0,0,.65-.01,1.27.03,1.89,0,.11.24.26.39.29,1.54.33,2.86,1.06,3.99,2.13,1.27,1.2,2.19,2.97,2.49,4.75,1.22,0,2.46-.02,3.69-.02.88,0,1.39.31,1.63.99.33.96-.3,1.89-1.32,1.91-.48.01-.97,0-1.49.01.04,5.2.07,10.36.11,15.54.59.04,1.17.06,1.75.12.72.07,1.17.68,1.15,1.52-.01.65-.59,1.25-1.24,1.29-.14,0-.28,0-.42,0-8.03.06-16.06.11-24.08.17-1.02,0-1.62-.5-1.63-1.37-.01-.95.57-1.51,1.61-1.54.41-.01.82,0,1.29-.01ZM218.27,128.62c-5.23.04-10.42.07-15.63.11.02,2.39.03,4.74.05,7.08,5.24-.04,10.42-.07,15.63-.11-.02-2.38-.03-4.71-.05-7.08ZM202.57,125.83c5.24-.04,10.45-.07,15.67-.11-.01-1.88-.03-3.72-.04-5.58-5.24.04-10.45.07-15.67.11.01,1.86.03,3.7.04,5.58ZM215.68,117.22c-.42-2.49-3-4.47-5.74-4.25-2.73.22-4.74,2.52-4.86,4.32,3.53-.02,7.06-.05,10.59-.07Z"/>
    <path class="cls-5" d="M210.46,134.17c-1.08.08-1.59-.83-1.64-1.56-.06-.84.79-1.7,1.63-1.67.84.03,1.63.63,1.62,1.6-.01.98-.63,1.62-1.6,1.63Z"/>
  </g>
</svg>