<?xml version="1.0" encoding="UTF-8"?>
<svg id="Layer_1" data-name="Layer 1" xmlns="http://www.w3.org/2000/svg" version="1.1" viewBox="0 0 283.46 200.43">
  <defs>
    <style>
      .cls-1, .cls-2 {
        stroke-width: 0px;
      }

      .cls-1, .cls-2, .cls-3 {
        fill: #161515;
      }

      .cls-2 {
        fill-rule: evenodd;
      }

      .cls-3 {
        stroke: #f7f6f0;
        stroke-miterlimit: 10;
        stroke-width: .75px;
      }
    </style>
  </defs>
  <g>
    <path class="cls-1" d="M92.46,128.99c1.72,1.3,3.42,2.63,5.09,3.96.22.16.4.36.52.6.12.24.21.49.24.74.08.55-.04,1.05-.34,1.51-.31.46-.71.72-1.22.8-.23.04-.47.02-.72-.03-.25-.06-.47-.18-.68-.36-1.67-1.32-3.37-2.63-5.09-3.92-1.17,1.8-2.32,3.62-3.44,5.44-.13.24-.3.44-.52.58-.21.14-.43.23-.66.28-.5.1-.97,0-1.42-.33-.45-.32-.73-.75-.84-1.3-.84-4.01-1.68-8.03-2.51-12.05-.11-.54-.02-1.05.29-1.53.31-.48.73-.77,1.26-.88.53-.11,1.03,0,1.5.32.47.32.75.76.85,1.3.46,2.41.93,4.83,1.39,7.24,2.17-3.41,4.43-6.8,6.81-10.15.33-.46.76-.74,1.3-.82.54-.08,1.03.05,1.48.39.45.34.71.79.79,1.34.08.55-.05,1.05-.37,1.51-1.27,1.78-2.51,3.56-3.72,5.36Z"/>
    <path class="cls-1" d="M98.72,131.08c-.1-.71-.07-1.39.09-2.04.16-.66.44-1.25.82-1.78.38-.53.85-.96,1.4-1.31.56-.34,1.17-.56,1.85-.64.67-.08,1.32-.02,1.95.17.62.2,1.18.51,1.67.93.49.42.9.93,1.22,1.53.32.6.51,1.25.58,1.96.05.47.04.92-.03,1.35-.07.43-.18.86-.34,1.26.25.08.45.23.62.45.17.22.26.48.29.77.04.4-.05.76-.28,1.07-.23.31-.52.48-.89.52-.27.03-.52-.02-.75-.15-.23-.13-.42-.32-.56-.56-.65.53-1.39.85-2.23.96-.65.08-1.27.02-1.88-.17-.6-.19-1.15-.49-1.65-.9-.49-.41-.91-.9-1.24-1.49-.33-.59-.55-1.23-.65-1.94ZM101.11,130.75c.05.36.15.69.32.98.16.29.37.54.62.74.25.21.52.36.82.45.3.1.62.13.95.08.33-.04.63-.15.9-.31.27-.17.5-.38.69-.64.19-.26.33-.55.42-.87.09-.32.11-.66.07-1.03-.04-.36-.14-.69-.3-.98-.16-.29-.36-.54-.61-.75-.25-.21-.52-.36-.83-.46-.31-.1-.63-.13-.97-.09-.34.04-.65.15-.92.32-.27.17-.5.39-.69.65-.19.26-.33.56-.41.88-.09.32-.1.67-.06,1.03Z"/>
    <path class="cls-1" d="M118.97,129.03c.03.59-.02,1.16-.17,1.71-.15.55-.37,1.05-.65,1.51-.29.46-.64.86-1.04,1.2-.41.35-.86.61-1.35.8.07.92.14,1.84.21,2.76.03.35-.07.66-.28.93-.21.27-.47.42-.78.45-.31.03-.59-.08-.85-.32-.25-.24-.39-.53-.42-.88-.08-.91-.15-1.83-.23-2.74-.52-.11-1-.3-1.47-.57-.46-.28-.88-.62-1.24-1.02-.36-.41-.66-.87-.89-1.39-.23-.52-.38-1.08-.44-1.68-.02-.24-.03-.48-.02-.72,0-.24.03-.47.07-.71.11-.34.24-.63.41-.89.14-.22.33-.41.55-.57.22-.16.49-.2.8-.12.3.08.51.2.64.35.13.15.21.3.25.44.04.17.03.36-.03.55-.23.45-.32.93-.27,1.44.04.48.19.91.45,1.28.26.37.58.65.95.85-.17-2.03-.34-4.07-.51-6.1-.03-.35.07-.66.29-.94.22-.27.5-.43.83-.45,0,0,.01,0,.02,0,.66-.05,1.3.03,1.92.26.61.23,1.15.56,1.62,1,.47.44.85.97,1.14,1.58.29.61.45,1.27.5,1.98ZM115.55,131.49c.34-.26.61-.58.79-.99.18-.4.26-.84.23-1.31-.03-.48-.17-.91-.41-1.29-.24-.37-.55-.66-.94-.86.11,1.48.22,2.97.33,4.45Z"/>
    <path class="cls-1" d="M127.2,130.12c.32,0,.61.11.85.36.24.25.37.55.37.9,0,.35-.1.66-.33.92-.46.52-.97.92-1.54,1.18-.57.27-1.15.41-1.76.43-.65.02-1.27-.08-1.85-.33-.58-.24-1.1-.59-1.56-1.04-.46-.45-.83-.98-1.11-1.59-.28-.61-.45-1.27-.48-1.99-.04-.71.05-1.39.27-2.03.22-.64.54-1.21.96-1.7.42-.49.92-.89,1.51-1.19.58-.3,1.21-.46,1.89-.48.63-.02,1.24.08,1.85.31.61.23,1.16.6,1.65,1.1.25.25.37.55.38.9,0,.35-.11.66-.34.92-.23.26-.51.4-.84.41-.34,0-.63-.11-.86-.36-.25-.26-.52-.45-.82-.55-.3-.1-.61-.15-.93-.14-.44.02-.85.15-1.21.4-.36.25-.64.58-.84.98.72-.03,1.44-.06,2.15-.09.33-.01.62.11.86.35.25.25.38.55.39.9.01.35-.1.66-.33.92-.23.26-.5.4-.83.41-.71.03-1.42.06-2.13.09.23.38.53.68.91.9.38.22.78.32,1.21.31.31-.01.61-.08.89-.21.28-.13.54-.33.78-.59.23-.26.51-.4.83-.41Z"/>
    <path class="cls-1" d="M135.83,128.58c.91,1,1.81,2,2.7,3.01.12.12.21.27.26.43.05.16.08.32.07.49,0,.35-.13.65-.37.9-.24.25-.52.37-.83.37-.15,0-.29-.03-.44-.1-.15-.06-.27-.16-.38-.3-.89-1-1.79-2-2.7-2.99-.92.99-1.82,1.98-2.71,2.98-.11.14-.24.24-.38.3-.15.06-.29.09-.44.1-.32,0-.6-.12-.83-.37-.24-.25-.36-.55-.37-.9-.05-2.59-.09-5.17-.14-7.76,0-.35.11-.66.35-.92.24-.26.52-.39.86-.4.33,0,.62.12.87.37.24.25.37.56.37.91.01,1.55.02,3.1.04,4.65,1.7-1.87,3.44-3.72,5.22-5.55.25-.25.54-.38.87-.37.33,0,.62.14.85.4.24.26.35.57.34.92,0,.35-.14.65-.38.9-.95.97-1.89,1.95-2.82,2.93Z"/>
    <path class="cls-1" d="M139.69,128.64c.02-.71.16-1.38.43-2,.27-.62.63-1.16,1.09-1.62.46-.46.99-.81,1.59-1.06.6-.25,1.24-.36,1.92-.33.68.03,1.31.19,1.88.49.58.3,1.08.7,1.49,1.19.42.5.73,1.06.94,1.7.21.64.3,1.32.25,2.03-.04.71-.21,1.37-.5,1.98-.29.61-.66,1.14-1.12,1.58-.46.45-.98.79-1.56,1.03-.58.24-1.2.35-1.85.32-.65-.03-1.25-.19-1.81-.47-.56-.29-1.05-.67-1.47-1.16-.42-.48-.74-1.04-.98-1.67-.23-.63-.34-1.3-.32-2.02ZM142.1,128.71c-.01.36.04.7.15,1.02.11.31.28.59.48.84.21.24.45.44.73.58.28.15.59.23.92.24.33.01.65-.04.94-.16.29-.12.55-.29.78-.52.23-.22.41-.49.55-.79.14-.3.22-.64.24-1,.02-.36-.03-.7-.13-1.02-.11-.32-.27-.6-.48-.84-.21-.25-.45-.44-.74-.59-.28-.15-.6-.23-.94-.24-.34-.01-.66.04-.96.16-.3.12-.56.3-.79.53-.23.23-.41.49-.55.8-.14.31-.21.64-.22,1Z"/>
    <path class="cls-1" d="M152.95,126.67c-.17,2.16-.33,4.32-.5,6.49-.03.35-.17.64-.42.88-.25.24-.54.35-.85.32-.32-.02-.58-.17-.8-.44-.22-.27-.31-.58-.29-.93.17-2.5.34-5,.5-7.5.02-.35.16-.64.42-.88.26-.24.56-.35.89-.32,2.45.17,4.9.38,7.35.63.33.03.6.19.82.47.21.28.3.59.26.94-.27,2.49-.53,4.98-.79,7.47-.04.35-.19.64-.44.87-.26.23-.55.33-.86.3-.32-.03-.58-.19-.79-.46-.21-.28-.3-.59-.26-.94.21-2.16.42-4.32.62-6.48-1.62-.15-3.24-.29-4.86-.42Z"/>
    <path class="cls-1" d="M163.66,125.15c.81.1,1.62.2,2.44.3.61.08,1.22.16,1.83.24.33.04.6.21.8.5.2.29.28.6.23.95-.05.35-.21.63-.49.85-.27.22-.57.31-.9.26-.6-.08-1.2-.16-1.81-.24-.17,1.28-.33,2.56-.5,3.85-.04.35.03.66.23.95.2.28.46.45.78.49.2.03.39.05.59.08.32.04.58.21.78.49.2.29.27.6.22.95-.05.35-.21.63-.47.85-.27.22-.56.31-.87.27-.19-.03-.39-.05-.58-.08-.49-.06-.93-.22-1.33-.48-.4-.25-.74-.57-1.01-.96-.28-.39-.48-.82-.61-1.31-.13-.49-.16-1-.1-1.54.15-1.28.31-2.57.46-3.85-.3-.04-.6-.07-.9-.11-.33-.04-.6-.2-.81-.48-.21-.28-.3-.59-.26-.94.04-.35.19-.64.46-.86.27-.23.57-.32.9-.28.3.03.61.07.91.11Z"/>
    <path class="cls-1" d="M175.98,133.64c.32.06.57.23.76.52.19.29.25.61.19.96-.06.35-.23.62-.51.83-.55.42-1.13.71-1.74.86-.61.15-1.21.18-1.81.08-.64-.1-1.22-.33-1.75-.69-.52-.35-.96-.79-1.32-1.32-.36-.53-.62-1.12-.77-1.78-.16-.66-.19-1.34-.08-2.04.1-.71.32-1.35.66-1.94.34-.58.76-1.08,1.27-1.48.51-.4,1.08-.69,1.71-.87.63-.18,1.28-.21,1.95-.1.62.1,1.2.32,1.75.67.55.35,1.02.81,1.41,1.4.19.29.26.61.2.96-.06.35-.23.62-.51.83-.28.21-.58.29-.91.23-.34-.06-.59-.23-.77-.52-.19-.31-.42-.54-.7-.7-.27-.16-.57-.27-.88-.32-.44-.07-.86-.02-1.27.16-.41.18-.74.44-1.02.79.71.11,1.42.22,2.13.34.32.05.58.22.78.52.19.29.26.61.2.96-.06.35-.23.62-.5.84-.28.21-.57.29-.89.24-.7-.11-1.4-.22-2.11-.33.15.42.39.77.71,1.06.32.29.7.47,1.13.54.31.05.61.04.91-.03.3-.07.6-.21.88-.43.28-.21.57-.29.89-.24Z"/>
    <path class="cls-1" d="M180.99,126.86c-.21.15-.44.2-.7.16-.25-.05-.45-.18-.59-.4-.14-.22-.19-.46-.14-.72.05-.26.18-.47.39-.63.48-.35.97-.7,1.46-1.04.21-.15.45-.2.7-.15.26.05.45.18.6.4.14.22.19.46.14.73-.05.26-.19.47-.4.62-.49.34-.97.69-1.46,1.04ZM179.99,136.83c-.07.34-.24.62-.52.83-.28.21-.57.28-.89.22-.31-.06-.56-.23-.75-.53-.18-.29-.24-.61-.18-.96.46-2.54.93-5.09,1.4-7.63.06-.34.24-.62.52-.83.29-.21.59-.28.92-.22.33.06.59.24.78.54.19.3.25.62.19.96-.49,2.54-.98,5.08-1.47,7.62Z"/>
    <path class="cls-1" d="M181.76,133.22c.14-.7.39-1.33.76-1.9.37-.56.82-1.04,1.35-1.41.53-.37,1.12-.63,1.75-.77.64-.14,1.29-.14,1.95,0,.66.14,1.26.41,1.78.81.52.39.95.87,1.27,1.43.33.56.54,1.17.64,1.84.1.67.07,1.35-.1,2.04-.17.69-.44,1.32-.83,1.87-.39.55-.84,1.01-1.37,1.37-.53.36-1.1.61-1.72.75-.62.14-1.24.14-1.88,0-.64-.14-1.21-.4-1.71-.78-.51-.38-.92-.84-1.25-1.39-.33-.55-.56-1.15-.68-1.82-.12-.66-.12-1.34.02-2.04ZM184.12,133.7c-.07.36-.08.7-.02,1.03.06.33.17.63.34.91.16.28.37.51.62.7.25.19.54.32.87.39.33.07.65.07.95,0,.31-.07.59-.2.86-.38.26-.18.49-.41.68-.69.19-.27.33-.59.41-.94.08-.35.09-.7.04-1.03-.05-.33-.16-.63-.33-.91-.16-.28-.37-.51-.63-.71-.26-.19-.55-.33-.89-.4-.33-.07-.66-.07-.97,0-.31.07-.6.2-.87.38-.27.19-.49.42-.68.69-.19.28-.32.59-.39.95Z"/>
  </g>
  <g>
    <path class="cls-1" d="M98.67,74.62c.43,5.8.8,11.61,1.3,17.4.44,5.01,4.06,8.42,9.16,8.9,2.8.26,5.52.01,8.08-1.19,3.28-1.54,5.01-4.15,5.42-7.64.1-.82.07-1.66.05-2.49-.36-11.26-.74-22.52-1.12-33.78-.08-2.46,1.39-3.88,4.14-3.96,1.14-.03,2.28-.07,3.41-.07,2.45-.02,4.04,1.38,4.08,3.59.06,3.17.1,6.34.14,9.51.12,8.27.24,16.54.33,24.81.03,2.54-.29,5.04-1.19,7.45-1.57,4.22-4.31,7.46-8.13,9.82-2.99,1.85-6.24,2.88-9.72,3.33-3.91.51-7.74.35-11.5-.86-6.82-2.2-11.47-6.53-13.45-13.49-.36-1.25-.57-2.56-.69-3.86-1.08-11.35-2.13-22.7-3.19-34.05-.23-2.42,1.16-3.95,3.84-4.18,1.16-.1,2.31-.21,3.47-.28,2.45-.16,4.1,1.15,4.27,3.35.44,5.9.88,11.79,1.31,17.69,0,0,0,0,0,0Z"/>
    <path class="cls-1" d="M150.78,80.67c-.05,3.03-.11,6.07-.15,9.1-.03,2.26.43,4.42,1.64,6.37,1.66,2.68,4.15,4.08,7.25,4.51,4.41.62,8.35-.46,11.92-3.07,1.9-1.39,3.91-1.23,5.56.44.54.54,1.08,1.09,1.59,1.66,1.32,1.47,1.22,3.56-.27,4.82-4.01,3.39-8.54,5.39-13.79,5.78-3.94.3-7.8,0-11.5-1.46-7.27-2.88-11.64-8.11-13.01-15.79-.25-1.42-.32-2.88-.33-4.32-.05-5.51-.05-11.01-.06-16.52,0-2.48.25-4.94,1.13-7.3,2.53-6.82,7.74-11.25,15.52-12.81,8.36-1.68,16.16-.03,22.73,5.11.55.43,1.06.91,1.53,1.42,1.3,1.41,1.23,3.13-.23,4.35-1.02.86-2.09,1.66-3.2,2.41-1.37.93-2.87.86-4.25-.09-.25-.17-.5-.36-.72-.57-2.42-2.21-5.39-3.37-8.77-3.63-2.59-.2-5.07.12-7.29,1.39-2.97,1.7-4.5,4.26-4.94,7.37-.23,1.56-.19,3.16-.23,4.74-.06,2.03-.07,4.06-.11,6.09Z"/>
    <path class="cls-1" d="M81.52,78.48c.68,6.57,1.39,13.14,2.03,19.72.29,2.97-.32,5.81-1.85,8.41-2.01,3.4-4.95,5.69-8.63,7.05-4.46,1.64-8.96,1.98-13.51.42-4.53-1.55-7.69-4.56-9.17-9.13-.53-1.64-.8-3.38-1.07-5.09-.26-1.61.71-3.13,2.36-3.55,1.63-.41,3.32-.71,5-.78,1.95-.08,3.15,1.12,3.48,2.99.23,1.27.37,2.57.81,3.77.78,2.12,2.77,3.22,5.07,3.14,1.7-.06,3.28-.43,4.64-1.49,1.63-1.27,2.25-2.98,2.01-4.95-1.08-8.94-2.2-17.87-3.3-26.81-.51-4.08-1.02-8.17-1.51-12.25-.18-1.46.33-2.68,1.79-3.49.31-.17.66-.33,1.01-.38,1.7-.23,3.4-.56,5.1-.57,2.19-.01,3.46,1.22,3.67,3.19.69,6.59,1.38,13.18,2.06,19.77Z"/>
    <path class="cls-2" d="M192.34,111c-.92-.44-1.77-.97-2.57-1.56-2.06-1.49-3.71-3.3-5.09-5.32-1.45-2.11-2.5-4.36-3.33-6.71-.9-2.53-1.47-5.11-1.77-7.74-.29-2.59-.28-5.18-.05-7.77.16-1.8.44-3.58.86-5.35,1.06-4.45,2.89-8.63,5.85-12.42,1.66-2.12,3.64-4.03,5.94-5.7,1.67-1.21,3.47-2.27,5.45-3.11.71-.3,1.45-.55,2.22-.74.85-.21,1.72-.33,2.64-.21.84.11,1.55.41,2.13.94.51.46.83,1,1.08,1.58.21.51.35,1.02.47,1.54.32,1.37.59,2.75.71,4.14.21,2.28.11,4.53-.36,6.75-.5,2.33-1.36,4.55-2.65,6.63-1.26,2.04-2.81,3.91-4.64,5.6-.38.35-.77.71-1.12,1.08-1.57,1.64-2.62,3.51-3.24,5.58-.74,2.47-.62,4.95-.03,7.45.64,2.71,1.89,5.2,3.6,7.52,1.03,1.4,2.16,2.72,3.37,3.99,1.17,1.23,2.35,2.44,3.52,3.67.13.13.25.28.37.41.08.14.15.28.24.42.1.17.18.35.23.54.13.55-.07.96-.6,1.23-.22.11-.46.17-.71.21-.74.13-1.49.12-2.24.06-.94-.07-1.88-.18-2.82-.29-.38-.04-.77-.09-1.14-.18-2.01-.47-3.94-1.16-5.78-2.06-.17-.08-.33-.19-.53-.2Z"/>
    <path class="cls-2" d="M208.91,111.65c-.36-.27-.68-.59-.96-.93-2.51-2.98-4.78-6.09-6.51-9.51-1.02-2.01-1.73-4.1-2.08-6.28-.27-1.65-.22-3.3.12-4.92.46-2.15,1.55-4.04,3.19-5.69.33-.33.67-.64,1-.96,2.38-2.25,4.32-4.75,5.66-7.6,1.06-2.27,1.72-4.63,1.89-7.1.22-3.16-.22-6.28-1.35-9.36-.18-.49-.4-.98-.61-1.46-.17-.39-.32-.77-.4-1.18-.07-.34-.07-.67.03-.99.12-.38.41-.58.89-.63.53-.06,1.02.1,1.5.26,1.2.38,2.28.96,3.29,1.63,1.45.97,2.73,2.07,3.93,3.25,2.78,2.74,4.76,5.83,6.13,9.18,1.2,2.93,1.9,5.94,2.24,8.99.19,1.74.25,3.48.2,5.22-.06,1.9-.21,3.78-.47,5.66-.25,1.75-.63,3.48-1.1,5.19-.63,2.34-1.42,4.63-2.4,6.86-.96,2.19-2.09,4.29-3.56,6.23-1.01,1.34-2.15,2.57-3.54,3.6-.73.54-1.5,1.02-2.35,1.39-.19.08-.37.18-.59.21-.15.02-.3.04-.45.07-.32.06-.65.07-.98.04-.67-.06-1.29-.27-1.84-.62-.29-.18-.57-.37-.86-.55Z"/>
  </g>
  <g>
    <path class="cls-3" d="M199.71,136.08c-.04-5.2-.07-10.37-.11-15.59-.45,0-.88,0-1.31,0-1,0-1.59-.49-1.6-1.35-.01-.99.53-1.53,1.58-1.55,1.08-.02,2.16-.03,3.24-.02.37,0,.53-.06.64-.51.55-2.37,1.8-4.28,3.95-5.49.74-.41,1.56-.67,2.36-.96.28-.1.41-.2.41-.53-.03-1.83-.03-3.66-.06-5.49,0-.16-.14-.4-.27-.45-.72-.3-1.05-.81-.98-1.62.04-.51.64-1.17,1.25-1.2,1.02-.04,2.04-.01,3.06.07.62.05,1.06.59,1.12,1.17.06.56-.27,1.34-.77,1.47-.53.13-.48.44-.47.8,0,.22,0,.45,0,.73.82,0,1.59,0,2.37-.03.16,0,.33-.11.47-.2,1.49-1.04,2.98-2.08,4.47-3.12.95-.66,1.88-1.33,2.85-1.95,1.04-.66,2.2-.91,3.43-.86.42.02.83,0,1.35,0-.17-.68-.37-1.3-.49-1.94-.3-1.51-.71-3.02-.81-4.55-.15-2.24,2.04-3.69,4.09-2.78.95.42,1.56,1.22,1.62,2.34.11,1.98-.5,3.83-.92,5.72-.08.38-.17.76-.25,1.14,1.22.17,1.74.95,1.35,2.02-.2.54-.67.84-1.34.85-1.43.01-2.86.07-4.28.02-1.22-.05-2.19.43-3.14,1.11-2.13,1.52-4.28,3.01-6.44,4.48-.57.39-1.22.6-1.94.57-.76-.03-1.53,0-2.36,0,0,.65-.01,1.27.03,1.89,0,.11.24.26.39.29,1.54.33,2.86,1.06,3.99,2.13,1.27,1.2,2.19,2.97,2.49,4.75,1.22,0,2.46-.02,3.69-.02.88,0,1.39.31,1.63.99.33.96-.3,1.89-1.32,1.91-.48.01-.97,0-1.49.01.04,5.2.07,10.36.11,15.54.59.04,1.17.06,1.75.12.72.07,1.17.68,1.15,1.52-.01.65-.59,1.25-1.24,1.29-.14,0-.28,0-.42,0-8.03.06-16.06.11-24.08.17-1.02,0-1.62-.5-1.63-1.37-.01-.95.57-1.51,1.61-1.54.41-.01.82,0,1.29-.01ZM218.27,128.86c-5.23.04-10.42.07-15.63.11.02,2.39.03,4.74.05,7.08,5.24-.04,10.42-.07,15.63-.11-.02-2.38-.03-4.71-.05-7.08ZM202.57,126.07c5.24-.04,10.45-.07,15.67-.11-.01-1.88-.03-3.72-.04-5.58-5.24.04-10.45.07-15.67.11.01,1.86.03,3.7.04,5.58ZM215.68,117.46c-.42-2.49-3-4.47-5.74-4.25-2.73.22-4.74,2.52-4.86,4.32,3.53-.02,7.06-.05,10.59-.07Z"/>
    <path class="cls-3" d="M210.46,134.42c-1.08.08-1.59-.83-1.64-1.56-.06-.84.79-1.7,1.63-1.67.84.03,1.63.63,1.62,1.6-.01.98-.63,1.62-1.6,1.63Z"/>
  </g>
</svg>